<?xml version="1.0" encoding="UTF-8"?>
<svg id="Layer_1" data-name="Layer 1" xmlns="http://www.w3.org/2000/svg" viewBox="0 0 550 550">
  <defs>
    <style>
      .cls-1 {
        fill: none;
        stroke: #fff;
        stroke-miterlimit: 10;
        stroke-width: 7px;
      }

      .cls-2 {
        fill: #121212;
      }

      .cls-2, .cls-3 {
        stroke-width: 0px;
      }

      .cls-4 {
        letter-spacing: -.01em;
      }

      .cls-5 {
        font-family: Vicky-Black, Vicky;
        font-size: 53.13px;
        font-weight: 800;
      }

      .cls-5, .cls-3 {
        fill: #fff;
      }

      .cls-6 {
        letter-spacing: 0em;
      }

      .cls-7 {
        letter-spacing: .01em;
      }

      .cls-8 {
        letter-spacing: 0em;
      }

      .cls-9 {
        letter-spacing: -.02em;
      }

      .cls-10 {
        letter-spacing: 0em;
      }
    </style>
  </defs>
  <path class="cls-2" d="m100,0h450v450c0,55.19-44.81,100-100,100H0V100C0,44.81,44.81,0,100,0Z"/>
  <circle class="cls-1" cx="275" cy="230.49" r="125"/>
  <text id="Soundpower" class="cls-5" transform="translate(107.24 415.34)"><tspan x="0" y="0">S</tspan><tspan class="cls-4" x="35.12" y="0">o</tspan><tspan x="66.2" y="0">u</tspan><tspan class="cls-9" x="101.69" y="0">nd</tspan><tspan class="cls-7" x="170.12" y="0">p</tspan><tspan class="cls-6" x="205.88" y="0">o</tspan><tspan x="237.23" y="0">w</tspan><tspan class="cls-8" x="280.1" y="0">e</tspan><tspan class="cls-10" x="311.93" y="0">r</tspan></text>
  <circle class="cls-1" cx="275" cy="230.49" r="107.5"/>
  <g id="LIghting">
    <path class="cls-3" d="m287.17,153.46l-55.82,87.55h46.21l-22.32,66.5,63.39-81.9h-51.35l19.87-72.14m0-5.24c.71,0,1.44.15,2.13.45,2.37,1.05,3.61,3.68,2.92,6.18l-18.05,65.51h44.47c2,0,3.82,1.14,4.71,2.93.88,1.8.66,3.94-.56,5.52l-63.39,81.9c-1.02,1.32-2.57,2.03-4.15,2.03-.84,0-1.69-.2-2.47-.62-2.25-1.21-3.31-3.86-2.5-6.29l20-59.59h-38.93c-1.91,0-3.68-1.04-4.6-2.72-.92-1.68-.85-3.72.18-5.34l55.82-87.55c.99-1.55,2.68-2.42,4.42-2.42h0Z"/>
  </g>
</svg>